# xmcd
#
# Track frame offsets:
#	150
#	14917
#	29145
#	50980
#	75000
#	88099
#	102113
#	130921
#	156167
#	169372
#
# Disc length: 2484 seconds
#
# Revision: 1
# Processed by: cddbd v1.5.2PL0 Copyright (c) Steve Scherf et al.
# Submitted via: audiograbber 1.83.01
#
DISCID=8409b20a
DTITLE=Al Green - Collectors Edition (Disk 3)
DYEAR=1900
DGENRE=Blues
TTITLE0=I'm Still In Love With You
TTITLE1=L-O-V-E (Love)
TTITLE2=Belle
TTITLE3=I Feel Good
TTITLE4=Smile A Little Bit More
TTITLE5=One Woman
TTITLE6=How Can You Mend A Broken Heart?
TTITLE7=Unchained Melody
TTITLE8=My Girl
TTITLE9=Take Me To The River
EXTD=
EXTT0=
EXTT1=
EXTT2=
EXTT3=
EXTT4=
EXTT5=
EXTT6=
EXTT7=
EXTT8=
EXTT9=
PLAYORDER=
